# xmcd
#
# Track frame offsets: 
#        150
#        15310
#        32150
#        50433
#        67826
#        82128
#        103033
#        121093
#        136833
#        151978
#        166015
#        185543
#        204108
#        218813
#        234008
#        254700
#        270010
#        288945
#        311364
#        329447
#        341733
#
# Disc length: 4804 seconds
#
# Revision: 0
# Processed by: cddbd v1.5.1PL0 Copyright (c) Steve Scherf et al.
# Submitted via: ExactAudioCopy v0.95a3
#
DISCID=1312c215
DTITLE=GEORGE THOROGOOD - The Baddest of...CD-2 
DYEAR=2005
DGENRE=Rockin'Blues
TTITLE0=You Got To Lose
TTITLE1=She's Gone
TTITLE2=Down in the Bottom
TTITLE3=The Usual
TTITLE4=Devil In Disguise
TTITLE5=One Way Ticket
TTITLE6=Be Bop Grandma' .....
TTITLE7=Shake Your Money Maker
TTITLE8=Greedy Man
TTITLE9=Tip On In
TTITLE10=Move It On Over
TTITLE11=Gone Dead Train
TTITLE12=Smokestack Lightning
TTITLE13=So Much Trouble
TTITLE14=You Talk Too Much
TTITLE15=Born in Chicago
TTITLE16=Get a Haircut
TTITLE17=Hellbound Train (Downbound Train)
TTITLE18=I'm Movin' On
TTITLE19=Rock&Roll Man
TTITLE20=It Wasn't Me
EXTD=
EXTT0=
EXTT1=
EXTT2=
EXTT3=
EXTT4=
EXTT5=
EXTT6=
EXTT7=
EXTT8=
EXTT9=
EXTT10=
EXTT11=
EXTT12=
EXTT13=
EXTT14=
EXTT15=
EXTT16=
EXTT17=
EXTT18=
EXTT19=
EXTT20=
PLAYORDER=
